<?xml version="1.0" encoding="UTF-8"?>
<!DOCTYPE svg PUBLIC "-//W3C//DTD SVG 1.1//EN" "http://www.w3.org/Graphics/SVG/1.1/DTD/svg11.dtd">
<!-- Creator: CorelDRAW X7 -->
<svg xmlns="http://www.w3.org/2000/svg" xml:space="preserve" width="38.9276mm" height="38.89mm" version="1.1" style="shape-rendering:geometricPrecision; text-rendering:geometricPrecision; image-rendering:optimizeQuality; fill-rule:evenodd; clip-rule:evenodd"
viewBox="0 0 2925 2922"
 xmlns:xlink="http://www.w3.org/1999/xlink">
 <defs>
  <style type="text/css">
   <![CDATA[
    .fil3 {fill:#FEFEFE}
    .fil2 {fill:#E86D60}
    .fil0 {fill:#E86D60;fill-opacity:0.541176}
    .fil1 {fill:#E86D60;fill-opacity:0.831373}
   ]]>
  </style>
 </defs>
 <g id="Layer_x0020_1">
  <metadata id="CorelCorpID_0Corel-Layer"/>
  <g id="_2106726686368">
   <g>
    <path class="fil0" d="M0 1926c882,-891 1802,-1379 2925,-1498l0 -177c0,-69 -28,-132 -74,-177 -45,-46 -108,-74 -177,-74l-2423 0c-69,0 -132,28 -177,74 -46,45 -74,108 -74,177l0 1675z"/>
    <path class="fil1" d="M0 2465c817,-1021 1720,-1457 2925,-1507l0 -450c-956,53 -1978,703 -2925,1632l0 325z"/>
    <path class="fil2" d="M2899 1736c-1011,41 -1865,504 -2862,1010 11,39 33,75 62,104 45,44 106,72 174,72l2379 0c68,0 130,-28 174,-72 45,-45 73,-107 73,-175l0 -939z"/>
    <path class="fil1" d="M2647 1895c56,-209 33,-440 -84,-643 0,-3 -265,293 -347,340 -243,141 -348,81 -568,141 -252,69 -370,360 -240,585 119,205 367,230 577,191 320,-60 578,-299 662,-614zm-1416 -1620c-209,56 -397,192 -514,394 -1,2 152,17 175,21 173,34 362,134 487,258 57,58 106,121 147,190 11,16 145,145 145,145 96,55 204,66 303,39 99,-26 187,-90 242,-185 14,7 52,-157 53,-172 4,-61 -6,-122 -29,-178 -17,-67 -101,-192 -147,-246 -60,-70 -134,-132 -219,-182 -199,-111 -422,-143 -643,-84zm-723 2016c153,153 365,248 599,248 1,0 -63,-140 -70,-163 -34,-96 -52,-199 -52,-307 0,-346 346,-657 58,-945 -119,-120 -305,-151 -456,-77 -214,105 -327,418 -327,645 0,234 95,446 248,599z"/>
   </g>
   <path class="fil3" d="M2627 1215c255,441 104,1005 -337,1260 -189,109 -401,143 -601,112 -140,-19 -270,-101 -346,-232 -131,-227 -53,-517 174,-647 73,-43 152,-63 231,-64l0 0 0 0c146,0 294,-38 430,-116 175,-101 302,-254 372,-428 28,36 54,74 77,115zm-1975 -583c254,-441 818,-592 1259,-338 190,110 325,276 399,465 53,131 47,284 -29,415 -131,227 -421,304 -647,174 -73,-43 -131,-101 -171,-169l0 0 0 0c-73,-126 -180,-236 -316,-314 -175,-101 -370,-135 -555,-108 16,-43 36,-84 60,-125zm455 1982c-510,0 -922,-412 -922,-922 0,-218 76,-419 203,-577 86,-111 222,-183 374,-183 261,0 473,212 473,474 0,84 -22,163 -60,232l0 0 0 0c-73,127 -115,274 -115,431 0,202 69,388 185,535 -45,7 -91,10 -138,10zm1504 -728c49,-183 34,-382 -53,-563 -22,34 -47,65 -73,96 -70,80 -154,150 -250,206 -76,44 -155,76 -235,98 -81,22 -164,33 -247,33 -2,0 -3,0 -4,0 -31,1 -61,5 -91,13 -29,8 -57,20 -85,36 -86,50 -144,130 -168,219 -24,90 -14,189 36,275 28,49 66,89 110,119 46,30 98,50 153,58l0 0 2 0c89,14 181,13 272,-4 88,-16 174,-48 256,-95 193,-112 323,-291 377,-491zm-1370 -1575c-183,49 -348,161 -460,327 39,3 79,8 119,15 104,21 206,58 303,114l0 0c76,44 144,96 202,155 60,59 111,125 152,195 1,2 2,3 3,5 16,26 35,51 56,72 22,21 47,40 74,56l0 0c86,50 185,60 274,36 90,-24 170,-82 220,-168l0 0c28,-49 44,-102 47,-155 4,-55 -5,-111 -26,-162l1 0 -1 -2c-33,-84 -80,-163 -140,-233 -58,-68 -128,-127 -210,-174l0 0c-193,-112 -414,-135 -614,-81zm-707 1954c134,133 313,220 513,235 -17,-36 -33,-73 -46,-111 -35,-101 -53,-208 -53,-320 0,-86 11,-171 33,-252 22,-83 54,-161 95,-233l1 -1c15,-27 27,-56 34,-85 8,-29 12,-59 12,-92 0,-100 -41,-190 -106,-255 -65,-66 -156,-106 -255,-106 -58,0 -112,13 -159,36 -48,23 -90,58 -124,99 -1,2 -2,4 -4,5 -57,71 -102,151 -132,238 -30,84 -46,174 -46,269 0,224 91,426 237,573z"/>
  </g>
 </g>
</svg>
